<?xml version="1.0" encoding="utf-8"?>
<!-- Svg Vector Icons : http://www.sfont.cn -->
<!DOCTYPE svg PUBLIC "-//W3C//DTD SVG 1.1//EN" "http://www.w3.org/Graphics/SVG/1.1/DTD/svg11.dtd">
<svg version="1.1" xmlns="http://www.w3.org/2000/svg" xmlns:xlink="http://www.w3.org/1999/xlink" x="0px" y="0px" viewBox="0 0 1000 1000" enable-background="new 0 0 1000 1000" xml:space="preserve">
<metadata> Svg Vector Icons : http://www.sfont.cn </metadata>
<g><path style="fill:#475782;" d="M881.1,10h-27.2h-735c0,0,0,0-0.1,0C58.8,10,10,58.9,10,118.9v762.2C10,941.2,58.8,990,118.9,990h762.2c60.1,0,108.9-48.8,108.9-108.9V118.9C990,58.8,941.2,10,881.1,10L881.1,10L881.1,10z M795.4,312.9c-23.6,141.7-147,250.2-295.4,250.2c-148.3,0-271.8-108.4-295.4-250.2c-18.5-8.7-31.3-27.5-31.3-49.3c0-30.1,24.4-54.4,54.4-54.4c30.1,0,54.4,24.4,54.4,54.4c0,18.4-9.2,34.7-23.1,44.5c21,113.9,121,200.5,240.9,200.5c119.9,0,219.9-86.6,240.9-200.5c-14-9.8-23.2-26.1-23.2-44.5c0-30.1,24.4-54.4,54.4-54.4c30.1,0,54.4,24.4,54.4,54.4C826.7,285.4,813.9,304.2,795.4,312.9L795.4,312.9L795.4,312.9z"/></g>
</svg>