<?xml version="1.0" encoding="utf-8"?>
<!-- Svg Vector Icons : http://www.sfont.cn -->
<!DOCTYPE svg PUBLIC "-//W3C//DTD SVG 1.1//EN" "http://www.w3.org/Graphics/SVG/1.1/DTD/svg11.dtd">
<svg version="1.1" xmlns="http://www.w3.org/2000/svg" xmlns:xlink="http://www.w3.org/1999/xlink" x="0px" y="0px" viewBox="0 0 1000 1000" enable-background="new 0 0 1000 1000" xml:space="preserve">
<metadata> Svg Vector Icons : http://www.sfont.cn </metadata>
<g><path style="fill:#475782;" d="M861.2,10H138.9C67.7,10,10,67.7,10,138.9v722.1C10,932.3,67.7,990,138.9,990h722.1c71.2,0,128.9-57.7,128.9-128.9V138.9C990.1,67.7,932.4,10,861.2,10z M899.4,847.8c0,28.5-23.1,51.6-51.6,51.6H150.9c-28.5,0-51.6-23.1-51.6-51.6V150.9c0-28.5,23.1-51.6,51.6-51.6h697c28.5,0,51.6,23.1,51.6,51.6L899.4,847.8L899.4,847.8z M767.3,232.7c-24.6,0-44.5,20-44.5,44.5c0,0.4,0.3,0.9,0.3,1.4h-0.4C721.8,401.1,622.6,500,500,500c-122.5,0-221.9-99-222.7-221.3H277c0-0.5,0.3-1,0.3-1.4c0-24.6-20-44.5-44.5-44.5s-44.5,20-44.5,44.5c0,0.4,0.3,0.9,0.3,1.4h-0.2c0.8,171.5,140,310.4,311.8,310.4c171.8,0,311-138.9,311.7-310.4h-0.1c0-0.4,0.3-0.9,0.3-1.4C811.9,252.7,791.9,232.7,767.3,232.7z"/></g>
</svg>