<?xml version="1.0" encoding="utf-8"?>
<!-- Svg Vector Icons : http://www.sfont.cn -->
<!DOCTYPE svg PUBLIC "-//W3C//DTD SVG 1.1//EN" "http://www.w3.org/Graphics/SVG/1.1/DTD/svg11.dtd">
<svg version="1.1" xmlns="http://www.w3.org/2000/svg" xmlns:xlink="http://www.w3.org/1999/xlink" x="0px" y="0px" viewBox="0 0 1000 1000" enable-background="new 0 0 1000 1000" xml:space="preserve">
<metadata> Svg Vector Icons : http://www.sfont.cn </metadata>
<g>
<g>
<g>
<path style="fill:#475782;" d="M123.8,333.1v308.5c0,28.6,23.2,51.9,51.9,51.9h42.3v244.6c0,28.6,23.2,51.9,51.9,51.9h131.7c28.6,0,51.9-23.2,51.9-51.9V418.2l78.7,89.6c9.9,11.2,24.1,17.6,39,17.6l132.5-0.1c28.6,0,51.9-23.2,51.9-51.9v-2.5c0-28.6-23.2-51.9-51.9-51.9h-84c-15,0-29.3-6.5-39.1-17.9l-97.2-111.8c-12.7-14.5-30.9-22.8-50.2-22.8h-18.9L356,360.5l-20.3-36l35.9-57.9h-87.7l35.9,57.9l-20.3,36l-58.3-93.9h-50.5C153.6,266.4,123.8,296.2,123.8,333.1z"/>
<path style="fill:#475782;" d="M326.8,220.6c58.6,0.4,106.1-47.8,106.1-106.6v-78c0-14.3-11.6-25.9-25.9-25.9h-78.1c-58.6,0-107,47.4-106.6,106.1C222.7,173.7,269.2,220.2,326.8,220.6z"/>
<path style="fill:#475782;" d="M613.4,341.2c5,9.1,14.6,14.8,25,14.8h209.2c15.8,0,28.5-12.8,28.5-28.5c0-15.8-12.7-28.5-28.4-28.5H686.3c11.6-25,20.3-50.5,27-75.1h55.8c15.8,0,28.5-12.8,28.5-28.5s-12.8-28.5-28.5-28.5h-43.6c5-30.2,7-56.5,7.8-75.1h79v20.1c0,15.8,12.8,28.5,28.5,28.5c15.8,0,28.5-12.8,28.5-28.5V63.1c0-15.8-12.8-28.5-28.5-28.5H705.2c-7.8,0-15.2,3.1-20.6,8.7c-5.4,5.6-8.3,13.1-8,20.9c0,0.8,1.2,45.4-9.1,102.6h-28c-15.8,0-28.5,12.8-28.5,28.5c0,15.8,12.8,28.5,28.5,28.5h14.3c-9.1,29.9-21.8,60.4-39.5,88.3C608.8,320.9,608.4,332.1,613.4,341.2z"/>
</g></g><g></g><g></g><g></g><g></g><g></g><g></g><g></g><g></g><g></g><g></g><g></g><g></g><g></g><g></g><g></g></g>
</svg>